<svg xmlns="http://www.w3.org/2000/svg" width="1600" height="1000" viewBox="0 0 1600 1000" font-family="'Helvetica Neue', Helvetica, Arial, sans-serif">
<rect width="1600" height="1000" fill="#ffffff"/>
<defs>
  <filter id="soft" x="-8%" y="-8%" width="116%" height="120%">
    <feDropShadow dx="0" dy="2" stdDeviation="4" flood-color="#1f2933"
      flood-opacity="0.10"/>
  </filter>
  <marker id="arrow" viewBox="0 0 10 10" refX="9" refY="5" markerWidth="8"
    markerHeight="8" orient="auto-start-reverse">
    <path d="M0,0 L10,5 L0,10 z" fill="#9aa5b1"/>
  </marker>
  <marker id="arrowT" viewBox="0 0 10 10" refX="9" refY="5" markerWidth="8"
    markerHeight="8" orient="auto-start-reverse">
    <path d="M0,0 L10,5 L0,10 z" fill="#00897b"/>
  </marker>
  <marker id="open" viewBox="0 0 12 12" refX="10" refY="6" markerWidth="12"
    markerHeight="12" orient="auto-start-reverse">
    <path d="M1,1 L11,6 L1,11" fill="none" stroke="#52606d"
      stroke-width="1.4"/>
  </marker>
  <marker id="openT" viewBox="0 0 12 12" refX="10" refY="6" markerWidth="12"
    markerHeight="12" orient="auto-start-reverse">
    <path d="M1,1 L11,6 L1,11" fill="none" stroke="#00897b"
      stroke-width="1.4"/>
  </marker>
  <marker id="tri" viewBox="0 0 14 14" refX="12" refY="7" markerWidth="14"
    markerHeight="14" orient="auto-start-reverse">
    <path d="M1,1 L13,7 L1,13 z" fill="#ffffff" stroke="#52606d"
      stroke-width="1.3"/>
  </marker>
</defs>
<rect x="40" y="36" width="5" height="22" rx="2.5" ry="2.5" fill="#00695c"/>
<text x="56" y="47" font-family="'Helvetica Neue', Helvetica, Arial, sans-serif" font-size="21" font-weight="700" fill="#1f2933" text-anchor="start">DermaTriage — Use-Case Diagram</text>
<text x="56" y="67" font-family="'Helvetica Neue', Helvetica, Arial, sans-serif" font-size="12.5" font-weight="400" fill="#7b8794" text-anchor="start">Community Health Worker (mobile app) · Reviewer (dashboard) — new contribution &amp; review use cases in teal</text>
<rect x="220" y="108" width="660" height="812" rx="16" ry="16" fill="#ffffff" stroke="#cbd2d9" stroke-width="1.6"/>
<text x="244" y="138" font-family="'Helvetica Neue', Helvetica, Arial, sans-serif" font-size="13.5" font-weight="700" fill="#52606d" text-anchor="start">DermaTriage Mobile App</text>
<text x="244" y="156" font-family="'Helvetica Neue', Helvetica, Arial, sans-serif" font-size="10.5" font-weight="400" fill="#7b8794" text-anchor="start">Flutter · Android · offline-first</text>
<rect x="980" y="300" width="470" height="430" rx="16" ry="16" fill="#ffffff" stroke="#cbd2d9" stroke-width="1.6"/>
<text x="1004" y="330" font-family="'Helvetica Neue', Helvetica, Arial, sans-serif" font-size="13.5" font-weight="700" fill="#52606d" text-anchor="start">Review Dashboard</text>
<text x="1004" y="348" font-family="'Helvetica Neue', Helvetica, Arial, sans-serif" font-size="10.5" font-weight="400" fill="#7b8794" text-anchor="start">Next.js · web</text>
<circle cx="110" cy="430" r="13" fill="#ffffff" stroke="#00695c" stroke-width="2"/>
<line x1="110" y1="443" x2="110" y2="476" stroke="#00695c" stroke-width="2"/>
<line x1="90" y1="456" x2="130" y2="456" stroke="#00695c" stroke-width="2"/>
<line x1="110" y1="476" x2="94" y2="502" stroke="#00695c" stroke-width="2"/>
<line x1="110" y1="476" x2="126" y2="502" stroke="#00695c" stroke-width="2"/>
<text x="110" y="522" font-family="'Helvetica Neue', Helvetica, Arial, sans-serif" font-size="13" font-weight="700" fill="#1f2933" text-anchor="middle">Community</text>
<text x="110" y="539" font-family="'Helvetica Neue', Helvetica, Arial, sans-serif" font-size="11" font-weight="400" fill="#7b8794" text-anchor="middle">Health Worker</text>
<circle cx="1520" cy="460" r="13" fill="#ffffff" stroke="#00695c" stroke-width="2"/>
<line x1="1520" y1="473" x2="1520" y2="506" stroke="#00695c" stroke-width="2"/>
<line x1="1500" y1="486" x2="1540" y2="486" stroke="#00695c" stroke-width="2"/>
<line x1="1520" y1="506" x2="1504" y2="532" stroke="#00695c" stroke-width="2"/>
<line x1="1520" y1="506" x2="1536" y2="532" stroke="#00695c" stroke-width="2"/>
<text x="1520" y="552" font-family="'Helvetica Neue', Helvetica, Arial, sans-serif" font-size="13" font-weight="700" fill="#1f2933" text-anchor="middle">Reviewer /</text>
<text x="1520" y="569" font-family="'Helvetica Neue', Helvetica, Arial, sans-serif" font-size="11" font-weight="400" fill="#7b8794" text-anchor="middle">Dermatologist</text>
<ellipse cx="470" cy="180" rx="125.0" ry="32" fill="#f6f8fa" stroke="#cbd2d9" stroke-width="1.4"/>
<text x="470" y="184" font-family="'Helvetica Neue', Helvetica, Arial, sans-serif" font-size="11.5" font-weight="500" fill="#1f2933" text-anchor="middle">Register / Sign in</text>
<ellipse cx="470" cy="270" rx="125.0" ry="32" fill="#f6f8fa" stroke="#cbd2d9" stroke-width="1.4"/>
<text x="470" y="266" font-family="'Helvetica Neue', Helvetica, Arial, sans-serif" font-size="11.5" font-weight="600" fill="#1f2933" text-anchor="middle">Register patient</text>
<text x="470" y="282" font-family="'Helvetica Neue', Helvetica, Arial, sans-serif" font-size="11.5" font-weight="500" fill="#1f2933" text-anchor="middle">(name · demographics · consent)</text>
<rect x="549.0" y="230" width="46" height="15" rx="7" ry="7" fill="#ffffff" stroke="#00695c" stroke-width="1"/>
<text x="572.0" y="241" font-family="'Helvetica Neue', Helvetica, Arial, sans-serif" font-size="8.5" font-weight="700" fill="#00695c" text-anchor="middle">updated</text>
<ellipse cx="470" cy="360" rx="125.0" ry="32" fill="#f6f8fa" stroke="#cbd2d9" stroke-width="1.4"/>
<text x="470" y="364" font-family="'Helvetica Neue', Helvetica, Arial, sans-serif" font-size="11.5" font-weight="500" fill="#1f2933" text-anchor="middle">Capture lesion photo</text>
<ellipse cx="470" cy="450" rx="125.0" ry="32" fill="#f6f8fa" stroke="#cbd2d9" stroke-width="1.4"/>
<text x="470" y="454" font-family="'Helvetica Neue', Helvetica, Arial, sans-serif" font-size="11.5" font-weight="500" fill="#1f2933" text-anchor="middle">Get on-device AI triage</text>
<ellipse cx="470" cy="540" rx="125.0" ry="32" fill="#f6f8fa" stroke="#cbd2d9" stroke-width="1.4"/>
<text x="470" y="536" font-family="'Helvetica Neue', Helvetica, Arial, sans-serif" font-size="11.5" font-weight="600" fill="#1f2933" text-anchor="middle">View encounter history</text>
<text x="470" y="552" font-family="'Helvetica Neue', Helvetica, Arial, sans-serif" font-size="11.5" font-weight="500" fill="#1f2933" text-anchor="middle">(now shows patient name)</text>
<rect x="549.0" y="500" width="46" height="15" rx="7" ry="7" fill="#ffffff" stroke="#00695c" stroke-width="1"/>
<text x="572.0" y="511" font-family="'Helvetica Neue', Helvetica, Arial, sans-serif" font-size="8.5" font-weight="700" fill="#00695c" text-anchor="middle">updated</text>
<ellipse cx="470" cy="630" rx="125.0" ry="32" fill="#e2f1ef" stroke="#00695c" stroke-width="1.8"/>
<text x="470" y="634" font-family="'Helvetica Neue', Helvetica, Arial, sans-serif" font-size="11.5" font-weight="600" fill="#00897b" text-anchor="middle">Contribute healthy-skin photo</text>
<rect x="565.0" y="590" width="30" height="15" rx="7" ry="7" fill="#00695c"/>
<text x="580.0" y="601" font-family="'Helvetica Neue', Helvetica, Arial, sans-serif" font-size="9" font-weight="700" fill="#ffffff" text-anchor="middle">new</text>
<ellipse cx="470" cy="720" rx="125.0" ry="32" fill="#e2f1ef" stroke="#00695c" stroke-width="1.8"/>
<text x="470" y="724" font-family="'Helvetica Neue', Helvetica, Arial, sans-serif" font-size="11.5" font-weight="600" fill="#00897b" text-anchor="middle">View my contributions</text>
<rect x="565.0" y="680" width="30" height="15" rx="7" ry="7" fill="#00695c"/>
<text x="580.0" y="691" font-family="'Helvetica Neue', Helvetica, Arial, sans-serif" font-size="9" font-weight="700" fill="#ffffff" text-anchor="middle">new</text>
<ellipse cx="470" cy="810" rx="125.0" ry="32" fill="#f6f8fa" stroke="#cbd2d9" stroke-width="1.4"/>
<text x="470" y="806" font-family="'Helvetica Neue', Helvetica, Arial, sans-serif" font-size="11.5" font-weight="500" fill="#1f2933" text-anchor="middle">Settings: language (EN/RW)</text>
<text x="470" y="822" font-family="'Helvetica Neue', Helvetica, Arial, sans-serif" font-size="11.5" font-weight="500" fill="#1f2933" text-anchor="middle">· privacy &amp; consent</text>
<line x1="470" y1="392" x2="470" y2="418" stroke="#52606d" stroke-width="1.4" stroke-dasharray="6 5" marker-end="url(#open)"/>
<text x="480" y="410" font-family="'Helvetica Neue', Helvetica, Arial, sans-serif" font-size="9.5" font-weight="400" fill="#52606d" text-anchor="start" font-style="italic">«include»</text>
<ellipse cx="754" cy="630" rx="105.0" ry="32" fill="#e2f1ef" stroke="#00695c" stroke-width="1.8"/>
<text x="754" y="626" font-family="'Helvetica Neue', Helvetica, Arial, sans-serif" font-size="11.5" font-weight="600" fill="#00897b" text-anchor="middle">Queue &amp; upload</text>
<text x="754" y="642" font-family="'Helvetica Neue', Helvetica, Arial, sans-serif" font-size="11.5" font-weight="500" fill="#00897b" text-anchor="middle">(Cloudinary + Firestore)</text>
<rect x="829.0" y="590" width="30" height="15" rx="7" ry="7" fill="#00695c"/>
<text x="844.0" y="601" font-family="'Helvetica Neue', Helvetica, Arial, sans-serif" font-size="9" font-weight="700" fill="#ffffff" text-anchor="middle">new</text>
<line x1="595.0" y1="630" x2="647.0" y2="630" stroke="#00897b" stroke-width="1.4" stroke-dasharray="6 5" marker-end="url(#openT)"/>
<text x="622.0" y="620" font-family="'Helvetica Neue', Helvetica, Arial, sans-serif" font-size="9.5" font-weight="400" fill="#00897b" text-anchor="middle" font-style="italic">«include»</text>
<line x1="132" y1="466" x2="343.0" y2="180" stroke="#9aa5b1" stroke-width="1.3"/>
<line x1="132" y1="466" x2="343.0" y2="270" stroke="#9aa5b1" stroke-width="1.3"/>
<line x1="132" y1="466" x2="343.0" y2="360" stroke="#9aa5b1" stroke-width="1.3"/>
<line x1="132" y1="466" x2="343.0" y2="450" stroke="#9aa5b1" stroke-width="1.3"/>
<line x1="132" y1="466" x2="343.0" y2="540" stroke="#9aa5b1" stroke-width="1.3"/>
<line x1="132" y1="466" x2="343.0" y2="630" stroke="#9aa5b1" stroke-width="1.3"/>
<line x1="132" y1="466" x2="343.0" y2="720" stroke="#9aa5b1" stroke-width="1.3"/>
<line x1="132" y1="466" x2="343.0" y2="810" stroke="#9aa5b1" stroke-width="1.3"/>
<ellipse cx="1215" cy="370" rx="150.0" ry="32" fill="#f6f8fa" stroke="#cbd2d9" stroke-width="1.4"/>
<text x="1215" y="374" font-family="'Helvetica Neue', Helvetica, Arial, sans-serif" font-size="11.5" font-weight="500" fill="#1f2933" text-anchor="middle">Sign in (allow-list)</text>
<ellipse cx="1215" cy="462" rx="150.0" ry="32" fill="#e2f1ef" stroke="#00695c" stroke-width="1.8"/>
<text x="1215" y="466" font-family="'Helvetica Neue', Helvetica, Arial, sans-serif" font-size="11.5" font-weight="600" fill="#00897b" text-anchor="middle">Review contribution queue</text>
<rect x="1335.0" y="422" width="30" height="15" rx="7" ry="7" fill="#00695c"/>
<text x="1350.0" y="433" font-family="'Helvetica Neue', Helvetica, Arial, sans-serif" font-size="9" font-weight="700" fill="#ffffff" text-anchor="middle">new</text>
<ellipse cx="1215" cy="554" rx="150.0" ry="32" fill="#e2f1ef" stroke="#00695c" stroke-width="1.8"/>
<text x="1215" y="550" font-family="'Helvetica Neue', Helvetica, Arial, sans-serif" font-size="11.5" font-weight="600" fill="#00897b" text-anchor="middle">Approve / Reject</text>
<text x="1215" y="566" font-family="'Helvetica Neue', Helvetica, Arial, sans-serif" font-size="11.5" font-weight="500" fill="#00897b" text-anchor="middle">(+ plausibility score)</text>
<rect x="1335.0" y="514" width="30" height="15" rx="7" ry="7" fill="#00695c"/>
<text x="1350.0" y="525" font-family="'Helvetica Neue', Helvetica, Arial, sans-serif" font-size="9" font-weight="700" fill="#ffffff" text-anchor="middle">new</text>
<ellipse cx="1215" cy="646" rx="150.0" ry="32" fill="#e2f1ef" stroke="#00695c" stroke-width="1.8"/>
<text x="1215" y="650" font-family="'Helvetica Neue', Helvetica, Arial, sans-serif" font-size="11.5" font-weight="600" fill="#00897b" text-anchor="middle">View my reviews</text>
<rect x="1335.0" y="606" width="30" height="15" rx="7" ry="7" fill="#00695c"/>
<text x="1350.0" y="617" font-family="'Helvetica Neue', Helvetica, Arial, sans-serif" font-size="9" font-weight="700" fill="#ffffff" text-anchor="middle">new</text>
<line x1="1498" y1="496" x2="1367" y2="370" stroke="#9aa5b1" stroke-width="1.3"/>
<line x1="1498" y1="496" x2="1367" y2="462" stroke="#9aa5b1" stroke-width="1.3"/>
<line x1="1498" y1="496" x2="1367" y2="554" stroke="#9aa5b1" stroke-width="1.3"/>
<line x1="1498" y1="496" x2="1367" y2="646" stroke="#9aa5b1" stroke-width="1.3"/>
<path d="M859.0,630 C929.0,630 920,480 976,468" fill="none" stroke="#00897b" stroke-width="1.6" stroke-dasharray="7 5" marker-end="url(#arrowT)"/>
<text x="925.5" y="598" font-family="'Helvetica Neue', Helvetica, Arial, sans-serif" font-size="10" font-weight="700" fill="#00897b" text-anchor="middle">contributed photos</text>
<text x="925.5" y="613" font-family="'Helvetica Neue', Helvetica, Arial, sans-serif" font-size="10" font-weight="400" fill="#00897b" text-anchor="middle">feed the review queue</text>
<ellipse cx="232" cy="960" rx="12" ry="8" fill="#f6f8fa" stroke="#cbd2d9" stroke-width="1.3"/>
<text x="252" y="964" font-family="'Helvetica Neue', Helvetica, Arial, sans-serif" font-size="11" font-weight="400" fill="#52606d" text-anchor="start">use case</text>
<ellipse cx="370" cy="960" rx="12" ry="8" fill="#e2f1ef" stroke="#00695c" stroke-width="1.6"/>
<text x="390" y="964" font-family="'Helvetica Neue', Helvetica, Arial, sans-serif" font-size="11" font-weight="400" fill="#52606d" text-anchor="start">new use case</text>
<line x1="520" y1="960" x2="556" y2="960" stroke="#52606d" stroke-width="1.4" stroke-dasharray="6 5" marker-end="url(#open)"/>
<text x="564" y="964" font-family="'Helvetica Neue', Helvetica, Arial, sans-serif" font-size="11" font-weight="400" fill="#52606d" text-anchor="start">«include»</text>
<line x1="690" y1="960" x2="726" y2="960" stroke="#9aa5b1" stroke-width="1.3"/>
<text x="734" y="964" font-family="'Helvetica Neue', Helvetica, Arial, sans-serif" font-size="11" font-weight="400" fill="#52606d" text-anchor="start">actor association</text>
</svg>
